<svg aria-hidden="true" style="position: absolute; width: 0; height: 0; overflow: hidden;" version="1.1" xmlns="http://www.w3.org/2000/svg" xmlns:xlink="http://www.w3.org/1999/xlink">
<defs>

<symbol id="icon-facebook" viewBox="0 0 16 32">
<title>icon-facebook</title>
<path d="M14.879 0.245c0 1.817 0 5.072 0 5.072s-3.738-0.373-4.674 1.060c-0.512 0.783-0.208 3.077-0.254 4.724 1.632 0 3.327 0 4.959 0-0.418 1.925-0.719 3.23-1.028 4.896-1.412 0-3.958 0-3.958 0v15.759c0 0-4.673 0-6.87 0 0.001-4.858-0.001-10.526 0-15.697-1.067 0-1.856 0-2.923 0 0-1.817 0-3.14 0-4.958 1.035 0 1.855 0 2.891 0 0.148-3.626 0.203-7.217 2.005-9.046 2.023-2.057 3.954-1.809 9.852-1.809z"></path>
</symbol>

<symbol id="icon-glass" viewBox="0 0 32 32">
<title>icon-glass</title>
<path d="M30.786 26.636c0.53 0.53 0.859 1.264 0.859 2.075 0 1.62-1.314 2.933-2.933 2.933-0.811 0-1.543-0.329-2.075-0.86v0l-8.597-8.596c-1.746 1.031-3.776 1.634-5.95 1.634-6.48 0-11.733-5.253-11.733-11.733s5.253-11.733 11.733-11.733c6.48 0 11.733 5.253 11.733 11.733 0 2.174-0.603 4.204-1.634 5.95l8.597 8.597zM12.089 3.287c-4.86 0-8.8 3.941-8.8 8.802s3.94 8.8 8.8 8.8c4.86 0 8.8-3.94 8.8-8.8s-3.94-8.802-8.8-8.802z"></path>
</symbol>

<symbol id="icon-instagram" viewBox="0 0 32 32">
<title>icon-instagram</title>
<path d="M27.938 31.754h-23.631c-2.175 0-3.938-1.764-3.938-3.94v-23.63c0-2.176 1.764-3.94 3.938-3.94h23.631c2.175 0 3.938 1.764 3.938 3.94v23.63c0 2.176-1.764 3.94-3.938 3.94zM16.123 9.894c-2.457 0-4.567 1.455-5.536 3.545h-0.006c-0.010 0.022-0.017 0.046-0.027 0.068-0.058 0.129-0.108 0.262-0.158 0.395-0.023 0.065-0.049 0.128-0.070 0.192-0.046 0.138-0.082 0.277-0.117 0.418-0.017 0.065-0.037 0.13-0.052 0.197-0.032 0.149-0.054 0.3-0.075 0.453-0.009 0.062-0.021 0.122-0.028 0.185-0.022 0.214-0.036 0.432-0.036 0.654 0 3.371 2.734 6.103 6.105 6.103s6.105-2.732 6.105-6.103c0-0.222-0.014-0.439-0.036-0.654-0.007-0.063-0.020-0.123-0.028-0.185-0.021-0.153-0.043-0.304-0.075-0.453-0.015-0.066-0.034-0.132-0.052-0.197-0.034-0.142-0.071-0.281-0.117-0.418-0.021-0.064-0.047-0.127-0.070-0.192-0.049-0.133-0.1-0.266-0.158-0.395-0.010-0.022-0.017-0.046-0.027-0.068h-0.006c-0.969-2.090-3.079-3.545-5.536-3.545zM28.332 5.365c0-0.87-0.705-1.574-1.575-1.574h-3.151c-0.87 0-1.575 0.704-1.575 1.574v3.152c0 0.87 0.705 1.575 1.575 1.575h3.151c0.87 0 1.575-0.705 1.575-1.575v-3.152zM28.332 13.439h-2.905c0.224 0.816 0.345 1.675 0.345 2.561 0 5.329-4.32 9.648-9.649 9.648s-9.649-4.319-9.649-9.648c0-0.886 0.121-1.745 0.345-2.561h-2.905v13.194c0 0.871 0.705 1.577 1.575 1.577h21.268c0.87 0 1.575-0.705 1.575-1.577v-13.194z"></path>
</symbol>

<symbol id="icon-pinterest" viewBox="0 0 38 32">
<title>icon-pinterest</title>
<path d="M25.473 0.874c2.959-0.052 4.534 1.025 6.038 2.396 1.277-0.109 2.937-0.822 3.914-1.319 0.316-0.172 0.633-0.346 0.95-0.519-0.559 1.508-1.315 2.689-2.479 3.587-0.259 0.198-0.515 0.467-0.839 0.593 0 0.006 0 0.013 0 0.019 1.658-0.016 3.025-0.765 4.324-1.171 0 0.006 0 0.013 0 0.019-0.682 1.084-1.606 2.185-2.591 2.973-0.397 0.316-0.796 0.631-1.193 0.947 0.022 1.756-0.026 3.431-0.353 4.906-1.908 8.575-6.964 14.396-14.966 16.89-2.874 0.895-7.517 1.263-10.81 0.445-1.632-0.404-3.107-0.863-4.49-1.468-0.769-0.336-1.482-0.7-2.163-1.116-0.224-0.135-0.447-0.272-0.671-0.407 0.742 0.022 1.612 0.227 2.441 0.092 0.752-0.121 1.488-0.089 2.182-0.24 1.728-0.38 3.263-0.881 4.583-1.655 0.641-0.375 1.615-0.815 2.070-1.356-0.858 0.015-1.636-0.185-2.273-0.409-2.471-0.873-3.91-2.477-4.847-4.887 0.749 0.083 2.906 0.278 3.411-0.148-0.943-0.052-1.849-0.598-2.497-1.004-1.988-1.244-3.609-3.329-3.597-6.54 0.262 0.124 0.522 0.247 0.783 0.371 0.5 0.211 1.008 0.323 1.603 0.447 0.252 0.052 0.755 0.199 1.044 0.092-0.013 0-0.025 0-0.038 0-0.384-0.447-1.011-0.745-1.398-1.226-1.276-1.584-2.47-4.023-1.715-6.929 0.192-0.737 0.496-1.388 0.82-1.988 0.013 0.006 0.025 0.012 0.038 0.017 0.148 0.311 0.48 0.54 0.689 0.8 0.652 0.807 1.455 1.533 2.273 2.173 2.79 2.182 5.302 3.523 9.337 4.515 1.024 0.253 2.207 0.445 3.43 0.447-0.343-0.999-0.233-2.618 0.036-3.585 0.681-2.435 2.157-4.188 4.324-5.129 0.518-0.224 1.092-0.388 1.696-0.521 0.311-0.036 0.621-0.074 0.932-0.111z"></path>
</symbol>

<symbol id="icon-shopping" viewBox="0 0 32 32">
<title>icon-shopping</title>
<path d="M31.513 9.179h0.002l-4.4 9.778c-0.217 0.482-0.686 0.825-1.239 0.862v0l-12.672 0.844 0.732 2.091h13.797c1.62 0 2.933 1.314 2.933 2.935 0 1.62-1.314 2.933-2.933 2.933s-2.933-1.314-2.933-2.933h-13.689c0 1.62-1.314 2.933-2.933 2.933s-2.933-1.314-2.933-2.933c0-1.621 1.314-2.935 2.933-2.935h2.651l-5.646-16.132h-3.36c-0.811 0-1.467-0.658-1.467-1.467 0-0.811 0.656-1.467 1.467-1.467h4.4c0.64 0 1.179 0.412 1.38 0.983l0.005-0.002 0.853 2.441h21.717c0.811 0 1.467 0.656 1.467 1.467 0 0.213-0.048 0.416-0.132 0.601zM9.488 10.044l2.711 7.746 12.603-0.841 3.108-6.905h-18.421z"></path>
</symbol>

<symbol id="icon-twitter" viewBox="0 0 32 32">
<title>icon-twitter</title>
<path d="M21.554 3.201c2.503-0.044 3.836 0.868 5.109 2.027 1.081-0.092 2.485-0.695 3.312-1.116 0.267-0.145 0.535-0.293 0.804-0.439-0.473 1.276-1.113 2.276-2.097 3.035-0.219 0.167-0.436 0.395-0.71 0.502 0 0.005 0 0.011 0 0.016 1.403-0.014 2.56-0.647 3.659-0.991 0 0.005 0 0.011 0 0.016-0.577 0.917-1.359 1.849-2.192 2.516-0.336 0.267-0.673 0.534-1.009 0.801 0.018 1.486-0.022 2.903-0.299 4.151-1.615 7.255-5.893 12.181-12.663 14.292-2.432 0.757-6.361 1.068-9.147 0.377-1.381-0.342-2.629-0.73-3.799-1.242-0.651-0.284-1.254-0.592-1.83-0.944-0.19-0.114-0.378-0.23-0.567-0.345 0.628 0.018 1.364 0.192 2.065 0.078 0.636-0.102 1.259-0.075 1.846-0.203 1.462-0.321 2.761-0.746 3.878-1.401 0.543-0.318 1.366-0.689 1.751-1.147-0.726 0.012-1.385-0.156-1.924-0.346-2.091-0.738-3.308-2.096-4.101-4.135 0.634 0.070 2.459 0.235 2.886-0.126-0.798-0.044-1.564-0.506-2.113-0.849-1.682-1.052-3.054-2.817-3.044-5.534 0.222 0.105 0.442 0.209 0.662 0.314 0.423 0.178 0.853 0.273 1.356 0.378 0.213 0.044 0.639 0.169 0.884 0.078-0.011 0-0.021 0-0.032 0-0.325-0.378-0.855-0.63-1.183-1.038-1.079-1.34-2.090-3.404-1.451-5.863 0.162-0.624 0.42-1.174 0.694-1.682 0.011 0.005 0.021 0.010 0.032 0.015 0.126 0.263 0.406 0.457 0.583 0.677 0.551 0.683 1.231 1.297 1.924 1.839 2.361 1.846 4.486 2.981 7.9 3.82 0.866 0.214 1.867 0.377 2.902 0.378-0.29-0.846-0.197-2.215 0.031-3.034 0.576-2.060 1.825-3.543 3.659-4.34 0.438-0.19 0.924-0.329 1.435-0.441 0.263-0.031 0.526-0.063 0.789-0.094z"></path>
</symbol>

</defs>
</svg>
